<?xml version="1.0" standalone="no"?>
<!DOCTYPE svg PUBLIC "-//W3C//DTD SVG 20010904//EN"
 "http://www.w3.org/TR/2001/REC-SVG-20010904/DTD/svg10.dtd">
<svg version="1.0" xmlns="http://www.w3.org/2000/svg"
 width="260.000000pt" height="260.000000pt" viewBox="0 0 260.000000 260.000000"
 preserveAspectRatio="xMidYMid meet">
<metadata>
Created by potrace 1.11, written by Peter Selinger 2001-2013
</metadata>
<g transform="translate(0.000000,260.000000) scale(0.100000,-0.100000)"
fill="#000000" stroke="none">
<path d="M998 1280 c3 -41 8 -60 17 -60 8 0 11 8 9 23 l-5 22 17 -22 c9 -13
23 -23 31 -23 10 0 8 6 -7 22 -25 27 -25 34 -2 47 12 7 13 10 3 11 -8 0 -20
-8 -27 -17 -12 -16 -13 -14 -14 20 0 23 -5 37 -12 37 -9 0 -12 -17 -10 -60z"/>
<path d="M1178 1279 l4 -60 31 3 c29 3 32 6 32 38 0 29 -4 36 -22 38 -15 2
-23 10 -23 23 0 10 -6 19 -12 19 -10 0 -12 -17 -10 -61z m56 -4 c8 -21 -3 -45
-20 -45 -9 0 -14 11 -14 30 0 32 23 42 34 15z"/>
<path d="M1084 1288 c3 -7 7 -25 10 -40 4 -18 13 -28 24 -27 10 0 12 3 5 6 -7
2 -13 20 -13 39 0 23 -5 34 -15 34 -8 0 -13 -6 -11 -12z"/>
<path d="M1138 1260 c2 -22 9 -40 16 -40 7 0 10 14 8 40 -2 22 -9 40 -16 40
-7 0 -10 -14 -8 -40z"/>
<path d="M1274 1286 c-16 -42 20 -86 49 -57 7 7 4 8 -10 5 -13 -4 -22 0 -26
10 -5 12 0 16 19 16 19 0 25 5 22 18 -4 22 -46 29 -54 8z m41 -6 c3 -5 -3 -10
-15 -10 -12 0 -18 5 -15 10 3 6 10 10 15 10 5 0 12 -4 15 -10z"/>
<path d="M1355 1259 c0 -22 5 -39 10 -39 6 0 10 15 10 33 0 20 5 31 13 30 6
-2 12 1 12 6 0 5 -10 9 -22 9 -20 0 -23 -6 -23 -39z"/>
<path d="M1427 1294 c-4 -4 -7 -12 -7 -18 0 -6 5 -5 12 2 14 14 28 16 28 3 0
-5 -9 -13 -20 -16 -25 -8 -27 -45 -2 -45 13 0 14 2 3 9 -7 5 -10 14 -7 20 11
18 26 13 26 -9 0 -11 6 -20 13 -20 10 0 12 10 8 38 -5 27 -12 38 -27 40 -11 2
-23 0 -27 -4z"/>
<path d="M1505 1259 c0 -21 5 -39 10 -39 6 0 10 14 10 32 0 17 6 33 13 35 8 3
12 -7 12 -31 0 -23 5 -36 13 -36 10 0 12 10 8 38 -6 33 -10 37 -36 39 -28 1
-30 -1 -30 -38z"/>
<path d="M1589 1292 c9 -6 12 -21 9 -41 -4 -24 -1 -31 12 -31 26 0 12 74 -15
78 -15 2 -17 1 -6 -6z"/>
</g>
</svg>
