<?xml version="1.0" encoding="UTF-8"?>
<!-- Created with Inkscape (http://www.inkscape.org/) --><svg xmlns:dc="http://purl.org/dc/elements/1.1/" xmlns="http://www.w3.org/2000/svg" xmlns:svg="http://www.w3.org/2000/svg" xmlns:inkscape="http://www.inkscape.org/namespaces/inkscape" xmlns:xlink="http://www.w3.org/1999/xlink" xmlns:rdf="http://www.w3.org/1999/02/22-rdf-syntax-ns#" xmlns:sodipodi="http://sodipodi.sourceforge.net/DTD/sodipodi-0.dtd" xmlns:cc="http://creativecommons.org/ns#" width="129.71495" height="50.865971" id="svg3680" sodipodi:version="0.32" inkscape:version="0.46" sodipodi:docbase="D:\A sauvegarder" sodipodi:docname="poweredbyXSLTForms.svg" inkscape:output_extension="org.inkscape.output.svg.inkscape" version="1.0"><defs id="defs3682"><linearGradient id="linearGradient5636"><stop style="stop-color:#000000;stop-opacity:1;" offset="0" id="stop5638"/><stop id="stop5748" offset="1" style="stop-color:#000000;stop-opacity:0.49803922;"/></linearGradient><linearGradient inkscape:collect="always" xlink:href="#linearGradient5636" id="linearGradient2940" gradientUnits="userSpaceOnUse" x1="33.218376" y1="443.91327" x2="510.66843" y2="443.91327"/></defs><sodipodi:namedview id="base" pagecolor="#ffffff" bordercolor="#666666" borderopacity="1.0" inkscape:pageopacity="0.0" inkscape:pageshadow="2" inkscape:zoom="1.4" inkscape:cx="166.244" inkscape:cy="136.36629" inkscape:document-units="px" inkscape:current-layer="layer1" inkscape:window-width="1280" inkscape:window-height="724" inkscape:window-x="0" inkscape:window-y="0" showgrid="false"/><metadata id="metadata3685"><rdf:RDF><cc:Work rdf:about=""><dc:format>image/svg+xml</dc:format><dc:type rdf:resource="http://purl.org/dc/dcmitype/StillImage"/></cc:Work></rdf:RDF></metadata><g inkscape:label="Calque 1" inkscape:groupmode="layer" id="layer1" transform="translate(-36.014484,-473.12314)"><g id="g2946" transform="matrix(0.2746544,0,0,0.3142289,26.181503,359.06574)"><rect ry="24.688309" y="365.2193" x="38.368378" height="157.38795" width="467.15005" id="rect3688" style="fill:url(#linearGradient2940);fill-opacity:1;fill-rule:nonzero;stroke:#f6cc05;stroke-width:4.80000019;stroke-miterlimit:4;stroke-dasharray:none;stroke-opacity:1"/><path id="text4659" d="M 103.02927,404.92413 C 101.7042,408.82518 99.456316,412.06086 96.285614,414.63116 C 93.011173,417.29262 89.450792,418.62335 85.604462,418.62335 C 84.200798,418.62335 82.814813,418.277 81.446503,417.58429 C 80.078162,416.89158 79.466916,416.54523 79.612762,416.54523 C 79.37577,416.54523 79.163856,416.81867 78.97702,417.36554 C 78.661415,418.29523 78.231606,419.69431 77.687592,421.56281 C 77.143554,423.43129 76.713745,424.83038 76.398163,425.76007 C 76.199911,426.3434 75.800009,426.63506 75.198456,426.63507 L 69.611786,426.66241 C 68.353971,426.66241 67.558155,426.61683 67.224335,426.5257 C 66.720753,426.39808 66.561818,426.06084 66.747528,425.51398 L 73.957733,404.45929 C 75.401246,400.21191 76.299601,396.62988 76.652802,393.7132 C 76.677856,393.53093 76.712036,393.37598 76.755341,393.24835 C 76.848754,392.97494 77.020222,392.79265 77.269745,392.70148 C 78.074095,392.42807 79.531287,392.1364 81.641327,391.82648 C 83.696648,391.51661 85.161816,391.36166 86.036835,391.36163 C 86.747752,391.36166 86.993845,391.83106 86.775116,392.76984 C 86.556345,393.70866 86.519887,394.17806 86.665741,394.17804 C 86.483429,394.17806 87.431629,393.68132 89.510345,392.68781 C 91.589015,391.69434 93.339298,391.1976 94.7612,391.19757 C 98.716896,391.1976 101.43703,392.50098 102.9216,395.10773 C 104.36281,397.62337 104.39869,400.8955 103.02927,404.92413 L 103.02927,404.92413 z M 92.903534,404.86945 C 93.399112,403.41113 93.38658,402.13509 92.865936,401.04132 C 92.289413,399.8929 91.290227,399.31868 89.868378,399.31866 C 88.410022,399.31868 87.048532,399.8929 85.783905,401.04132 C 84.665071,402.0804 83.848178,403.35644 83.333221,404.86945 C 82.806838,406.41894 82.771519,407.70409 83.227264,408.72491 C 83.705762,409.8369 84.70153,410.39289 86.214569,410.39288 C 89.422879,410.39289 91.652532,408.55175 92.903534,404.86945 L 92.903534,404.86945 z M 132.96384,404.62335 C 131.55218,408.77961 129.13483,412.152 125.71176,414.74054 C 122.28864,417.32908 118.50809,418.62335 114.37009,418.62335 C 110.35966,418.62335 107.49398,417.34731 105.77304,414.79523 C 104.05209,412.24315 103.87293,408.9619 105.23557,404.95148 C 106.67338,400.72233 109.07935,397.29069 112.45346,394.65656 C 115.82755,392.02247 119.62918,390.70541 123.85837,390.70538 C 127.97813,390.70541 130.87571,391.99512 132.55112,394.57452 C 134.22646,397.15397 134.36403,400.50358 132.96384,404.62335 L 132.96384,404.62335 z M 123.99509,404.62335 C 124.48497,403.18326 124.47073,401.91178 123.95236,400.8089 C 123.43395,399.70605 122.46381,399.15462 121.04196,399.1546 C 119.60184,399.15462 118.22497,399.71972 116.91135,400.84991 C 115.6763,401.90722 114.81099,403.16503 114.3154,404.62335 C 113.81408,406.09993 113.82092,407.36685 114.33591,408.42413 C 114.88163,409.55435 115.87455,410.11945 117.31467,410.11945 C 118.73652,410.11945 120.10428,409.55435 121.41794,408.42413 C 122.63471,407.36685 123.49376,406.09993 123.99509,404.62335 L 123.99509,404.62335 z M 177.47092,398.93585 C 176.50472,401.77962 175.60466,403.75748 174.77072,404.86945 C 173.90023,406.03612 171.9782,408.20539 169.00461,411.37726 C 165.96372,414.64028 163.94541,416.66372 162.94968,417.44757 C 162.27744,417.97622 160.98431,418.24054 159.07028,418.24054 C 157.48432,418.24054 156.50051,418.18585 156.11887,418.07648 C 155.80325,417.98533 155.54633,417.80304 155.34811,417.5296 C 154.65538,416.50877 153.90286,414.00226 153.09055,410.01007 C 149.40026,414.11164 146.98091,416.61815 145.83249,417.5296 C 145.23319,418.00356 143.95829,418.24054 142.00778,418.24054 C 140.62235,418.24054 139.74792,418.18585 139.38449,418.07648 C 138.55961,417.82127 137.69145,415.84341 136.78,412.14288 C 136.04057,409.11685 135.59738,406.69237 135.45041,404.86945 C 135.37293,403.70279 135.80815,401.72493 136.75607,398.93585 C 137.90222,395.56348 138.69348,393.50358 139.12985,392.75616 C 139.41923,392.28223 139.81913,392.04525 140.32956,392.04523 C 141.16809,392.04525 142.4165,392.0726 144.0748,392.12726 C 145.73307,392.18197 146.98148,392.20932 147.82004,392.20929 C 148.23929,392.20932 148.34639,392.5101 148.14133,393.11163 C 147.96243,393.6403 147.67048,394.44694 147.26547,395.53156 C 146.86043,396.61621 146.5679,397.42285 146.38791,397.95148 C 145.63822,400.15722 145.13863,401.78873 144.88913,402.84601 C 144.78885,403.24706 144.92785,404.27245 145.30612,405.92218 C 145.68436,407.57193 145.98286,408.3968 146.20163,408.39679 C 146.52974,408.3968 147.40702,407.5856 148.83347,405.9632 C 150.00923,404.59602 150.81957,403.57975 151.2645,402.91437 C 151.70938,402.24902 152.37788,400.60384 153.26999,397.97882 C 153.45567,397.43197 153.68268,396.61621 153.95102,395.53156 C 154.21931,394.44694 154.4429,393.6403 154.6218,393.11163 C 154.81432,392.54655 155.12022,392.264 155.53952,392.26398 C 156.04991,392.264 157.06448,392.25489 158.58322,392.23663 L 159.71457,392.20929 C 159.69631,392.20932 159.66583,392.20476 159.62314,392.19562 C 159.58038,392.18653 159.56529,392.19109 159.57785,392.20929 L 159.76926,392.20929 L 160.48019,392.20929 C 161.17857,392.19109 162.18402,392.20932 163.49655,392.26398 C 163.87933,392.31869 163.98358,392.60124 163.8093,393.11163 C 163.57456,393.80437 163.17153,394.8571 162.60019,396.26984 C 162.02879,397.68262 161.62518,398.73535 161.38937,399.42804 C 160.75816,401.28743 160.43174,402.46321 160.41013,402.95538 C 160.39984,403.57519 160.49953,404.56868 160.7092,405.93585 C 160.97235,407.57649 161.268,408.3968 161.59616,408.39679 C 161.92425,408.3968 162.81691,407.56737 164.27414,405.90851 C 165.66977,404.32258 166.47869,403.28352 166.7009,402.79132 C 167.00848,402.09863 168.14096,398.87207 170.09836,393.11163 C 170.31593,392.47364 170.60702,392.15463 170.97165,392.1546 C 171.81015,392.15463 173.08163,392.12728 174.7861,392.07257 C 176.49048,392.01791 177.76197,391.99057 178.60056,391.99054 C 179.09269,391.99057 179.316,392.24577 179.27048,392.75616 C 179.21118,393.52181 178.61133,395.58171 177.47092,398.93585 L 177.47092,398.93585 z M 204.25925,403.22882 C 203.63259,405.06998 202.68353,406.11816 201.41208,406.37335 C 201.199,406.40982 199.24449,406.61034 195.54855,406.97491 C 193.3166,407.2119 190.012,407.49446 185.63474,407.82257 C 185.48775,409.00748 185.95601,409.90982 187.03952,410.5296 C 187.92362,411.04003 189.04015,411.29523 190.38913,411.29523 C 192.01151,411.29523 193.7917,410.85773 195.72971,409.98273 C 196.5705,409.54524 197.41189,409.10774 198.25388,408.67023 C 198.574,408.85253 198.90041,409.78221 199.23312,411.45929 C 199.56578,413.13638 199.65465,414.20278 199.49973,414.65851 C 199.4564,414.78612 199.24848,414.99575 198.87595,415.28741 C 195.83963,417.67544 191.97903,418.86945 187.29416,418.86945 C 182.95561,418.86945 179.88627,417.60252 178.08615,415.06866 C 176.22563,412.49836 176.02625,409.06216 177.48801,404.76007 C 178.91329,400.56738 181.30245,397.13119 184.65549,394.45148 C 188.11332,391.68067 191.92036,390.29525 196.07663,390.29523 C 199.5766,390.29525 202.11416,391.5713 203.6893,394.12335 C 205.26438,396.67546 205.45436,399.71061 204.25925,403.22882 L 204.25925,403.22882 z M 195.25461,401.56085 C 195.63854,400.43066 195.5753,399.43717 195.06491,398.58038 C 194.55447,397.72363 193.74327,397.29525 192.63132,397.29523 C 191.48286,397.29525 190.37031,397.77832 189.29367,398.74445 C 188.29789,399.63769 187.59549,400.68587 187.18649,401.88898 C 187.019,402.38118 187.19047,402.62727 187.7009,402.62726 C 189.04984,402.62727 191.2174,402.41764 194.20358,401.99835 C 194.83588,401.90722 195.18623,401.76139 195.25461,401.56085 L 195.25461,401.56085 z M 226.19406,401.04132 C 225.9525,401.75227 225.4398,402.10774 224.65598,402.10773 C 224.3096,402.10774 223.81143,402.08496 223.16147,402.03937 C 222.51146,401.99381 222.02241,401.97102 221.69431,401.97101 C 220.18126,401.97102 219.07071,402.208 218.36264,402.68195 C 217.65453,403.15592 217.05554,404.11295 216.56564,405.55304 C 216.30016,406.33691 215.90995,407.52636 215.39499,409.1214 C 214.88,410.71646 214.48921,411.90591 214.22263,412.68976 C 214.04374,413.21841 213.81246,414.00682 213.52878,415.05499 C 213.24507,416.10317 213.01664,416.88247 212.84348,417.39288 C 212.69421,417.83038 212.30969,418.07648 211.68991,418.13116 C 210.78983,418.20408 209.43746,418.24054 207.63278,418.24054 C 205.90101,418.24054 204.53439,418.18585 203.53293,418.07648 C 202.95643,418.00356 202.75762,417.70278 202.93649,417.17413 C 203.43209,415.7158 204.18319,413.53286 205.18979,410.62531 C 206.19637,407.71776 206.94747,405.53482 207.44308,404.07648 C 208.89913,399.79264 209.70577,396.2653 209.86301,393.49445 C 209.88237,393.33041 209.91085,393.19369 209.94846,393.08429 C 210.04073,392.81088 210.23954,392.62859 210.54489,392.53741 C 211.58394,392.42807 213.11918,392.22754 215.1506,391.93585 C 218.22334,391.37077 219.80529,391.08822 219.89645,391.0882 C 220.22456,391.08822 220.23908,391.66244 219.94003,392.81085 C 219.64094,393.95931 219.60989,394.53353 219.84689,394.53351 C 219.59167,394.53353 220.5017,394.05502 222.577,393.09796 C 224.65225,392.14096 226.50108,391.66244 228.1235,391.66241 C 229.14431,391.66244 229.5801,391.88119 229.43088,392.31866 C 229.25084,392.84734 228.94208,393.59473 228.50461,394.56085 C 228.04201,395.59994 227.72414,396.34733 227.55099,396.80304 C 227.37209,397.33171 227.14309,398.03353 226.86398,398.90851 C 226.53469,399.98405 226.31139,400.69498 226.19406,401.04132 L 226.19406,401.04132 z M 253.69675,403.22882 C 253.07009,405.06998 252.12103,406.11816 250.84958,406.37335 C 250.6365,406.40982 248.68199,406.61034 244.98605,406.97491 C 242.7541,407.2119 239.4495,407.49446 235.07224,407.82257 C 234.92525,409.00748 235.39351,409.90982 236.47702,410.5296 C 237.36112,411.04003 238.47765,411.29523 239.82663,411.29523 C 241.44901,411.29523 243.2292,410.85773 245.16721,409.98273 C 246.008,409.54524 246.84939,409.10774 247.69138,408.67023 C 248.0115,408.85253 248.33791,409.78221 248.67062,411.45929 C 249.00328,413.13638 249.09215,414.20278 248.93723,414.65851 C 248.8939,414.78612 248.68598,414.99575 248.31345,415.28741 C 245.27713,417.67544 241.41653,418.86945 236.73166,418.86945 C 232.39311,418.86945 229.32377,417.60252 227.52365,415.06866 C 225.66313,412.49836 225.46375,409.06216 226.92551,404.76007 C 228.35079,400.56738 230.73995,397.13119 234.09299,394.45148 C 237.55082,391.68067 241.35786,390.29525 245.51413,390.29523 C 249.0141,390.29525 251.55166,391.5713 253.1268,394.12335 C 254.70188,396.67546 254.89186,399.71061 253.69675,403.22882 L 253.69675,403.22882 z M 244.69211,401.56085 C 245.07604,400.43066 245.0128,399.43717 244.50241,398.58038 C 243.99197,397.72363 243.18077,397.29525 242.06882,397.29523 C 240.92036,397.29525 239.80781,397.77832 238.73117,398.74445 C 237.73539,399.63769 237.03299,400.68587 236.62399,401.88898 C 236.4565,402.38118 236.62797,402.62727 237.1384,402.62726 C 238.48734,402.62727 240.6549,402.41764 243.64108,401.99835 C 244.27338,401.90722 244.62373,401.76139 244.69211,401.56085 L 244.69211,401.56085 z M 293.88351,379.2757 C 294.01905,378.87469 293.74162,379.47626 293.05124,381.08038 C 292.16252,383.10386 291.12802,385.69239 289.94772,388.84601 C 288.58733,392.41895 287.13299,396.48405 285.58469,401.04132 C 283.02573,408.56998 281.41359,413.92935 280.74826,417.11945 C 280.66734,417.4658 280.61151,417.68455 280.58078,417.7757 C 280.51239,417.97622 280.33522,418.09471 280.04929,418.13116 C 279.36224,418.22231 276.9315,418.26788 272.75705,418.26788 C 271.77265,418.26788 271.27249,418.07648 271.25656,417.69366 C 271.45592,417.00096 271.65473,416.30825 271.853,415.61554 C 271.88488,415.46971 271.86152,415.32388 271.78293,415.17804 C 271.6553,415.23273 271.48156,415.3421 271.26169,415.50616 C 268.63667,417.43846 265.84761,418.4046 262.8945,418.4046 C 259.04814,418.4046 256.42599,417.05564 255.02805,414.35773 C 253.69503,411.78742 253.69446,408.54263 255.02634,404.62335 C 256.37757,400.64941 258.57418,397.37728 261.61618,394.80695 C 264.84273,392.0726 268.40653,390.70541 272.30759,390.70538 C 275.06017,390.70541 276.90473,391.58041 277.84128,393.33038 C 277.99734,393.62207 278.13007,393.76791 278.23947,393.76788 C 278.4035,393.76791 278.56586,393.53093 278.72653,393.05695 C 279.20388,391.65333 279.88007,389.55697 280.7551,386.76788 C 281.63006,383.97885 282.30283,381.89162 282.77341,380.50616 C 282.95339,379.97756 283.20176,379.67678 283.51852,379.60382 C 284.70338,379.54917 286.34458,379.4398 288.44211,379.2757 C 292.24285,378.82001 293.9336,378.59214 293.51437,378.5921 C 293.91537,378.59214 294.03842,378.82001 293.88351,379.2757 L 293.88351,379.2757 z M 275.03513,404.4046 C 275.52387,402.96451 275.45124,401.70214 274.81723,400.61749 C 274.18317,399.53288 273.15522,398.99056 271.73337,398.99054 C 270.23856,398.99056 268.86482,399.53288 267.61215,400.61749 C 266.35945,401.70214 265.47619,403.00097 264.96237,404.51398 C 264.46105,405.99055 264.48327,407.23925 265.02902,408.26007 C 265.56905,409.35383 266.56823,409.9007 268.02658,409.9007 C 269.48489,409.9007 270.89196,409.35383 272.24777,408.26007 C 273.60354,407.16633 274.53266,405.88118 275.03513,404.4046 L 275.03513,404.4046 z M 332.92868,404.70538 C 331.62754,408.53352 329.44631,411.73273 326.38498,414.30304 C 323.12307,417.03742 319.61453,418.4046 315.85934,418.4046 C 313.12495,418.4046 311.18526,417.62075 310.04025,416.05304 C 309.95023,415.94367 309.85966,415.88898 309.76852,415.88898 C 309.58622,415.88898 309.3031,416.22622 308.91916,416.9007 C 308.53519,417.57518 308.22131,417.94887 307.97751,418.02179 C 307.63684,418.11294 305.02381,418.15851 300.1384,418.15851 C 298.98996,418.15851 298.48695,417.94887 298.62936,417.5296 C 298.64759,417.47492 298.71196,417.3382 298.82248,417.11945 C 300.17257,414.22101 302.2319,408.69758 305.00046,400.54913 C 307.64595,392.7653 309.67452,385.99318 311.08615,380.23273 L 311.15964,379.93195 C 311.25874,379.64032 311.59712,379.47626 312.17477,379.43976 C 312.58264,379.42157 314.21528,379.28485 317.07272,379.0296 C 319.08474,378.84735 320.70144,378.7562 321.92282,378.75616 C 322.26915,378.7562 322.34036,379.05698 322.13644,379.65851 C 321.89488,380.36948 321.5303,381.30828 321.04269,382.47491 C 320.44339,383.91505 320.05716,384.86297 319.884,385.31866 C 319.17988,387.12338 318.29804,389.58432 317.23849,392.70148 C 317.04593,393.26661 317.09549,393.54916 317.38718,393.54913 C 317.53299,393.54916 317.69477,393.47624 317.87253,393.33038 C 320.10786,391.58041 322.55626,390.70541 325.21774,390.70538 C 329.2099,390.70541 331.86566,392.06348 333.18503,394.7796 C 334.40748,397.29525 334.32203,400.60384 332.92868,404.70538 L 332.92868,404.70538 z M 323.13278,404.4046 C 323.64659,402.8916 323.61668,401.611 323.04306,400.56281 C 322.46939,399.51465 321.43517,398.99056 319.9404,398.99054 C 318.40913,398.99056 317.02343,399.51465 315.78329,400.56281 C 314.54312,401.611 313.65986,402.90983 313.13351,404.45929 C 312.58776,406.06347 312.57637,407.35774 313.09933,408.3421 C 313.65759,409.38117 314.72057,409.9007 316.2883,409.9007 C 317.83776,409.9007 319.25109,409.36294 320.52829,408.28741 C 321.72569,407.28482 322.59386,405.99055 323.13278,404.4046 L 323.13278,404.4046 z M 365.25241,398.58038 C 364.05039,402.11686 363.21014,404.2679 362.73166,405.03351 C 362.14829,405.94498 359.03054,409.24445 353.37839,414.93195 C 352.49197,415.82518 350.2851,417.89419 346.75778,421.13898 C 342.86356,424.71189 340.69999,426.5986 340.26706,426.79913 C 339.73726,427.07256 336.89295,427.20928 331.7341,427.20929 C 330.95024,427.20928 330.45236,427.11813 330.24045,426.93585 C 330.25754,426.18845 330.25754,425.30433 330.24045,424.28351 C 330.16525,423.64548 330.09347,422.99835 330.02512,422.3421 C 329.92713,421.39418 329.93112,420.76528 330.03708,420.45538 C 330.15443,420.10903 330.36805,419.93585 330.67795,419.93585 C 335.74565,419.93585 338.67314,418.7783 339.46042,416.4632 C 339.52877,416.26268 338.90556,414.44888 337.59079,411.02179 C 336.21562,407.50357 335.5588,405.27961 335.62033,404.34991 C 335.65336,403.82128 336.22132,401.93457 337.32419,398.68976 C 337.54749,398.03353 337.90182,397.0446 338.38718,395.72296 C 338.87252,394.40137 339.22685,393.41244 339.45016,392.75616 C 339.61194,392.28223 339.99361,392.04525 340.59518,392.04523 C 341.52486,392.04525 342.92366,392.0726 344.7916,392.12726 C 346.6595,392.18197 348.0583,392.20932 348.98801,392.20929 C 349.3708,392.20932 349.46593,392.49187 349.27341,393.05695 C 349.10021,393.56739 348.81139,394.33757 348.40695,395.36749 C 348.00247,396.39746 347.71309,397.16764 347.53879,397.67804 C 346.75833,399.97493 346.26558,401.53352 346.06052,402.35382 C 345.89758,402.99186 346.0417,404.17675 346.49289,405.90851 C 346.97253,407.71321 347.45845,408.61555 347.95065,408.61554 C 348.3699,408.61555 349.38447,407.72232 350.99435,405.93585 C 352.50052,404.24055 353.38919,403.10123 353.66037,402.51788 C 354.38723,400.91373 355.07026,399.17285 355.70944,397.29523 C 355.87576,396.80306 356.08368,396.05567 356.33322,395.05304 C 356.58271,394.05046 356.79462,393.29395 356.96896,392.78351 C 357.08629,392.43718 357.33637,392.264 357.71921,392.26398 C 358.64887,392.264 360.05137,392.22754 361.92673,392.1546 C 363.80202,392.08171 365.20452,392.04525 366.13425,392.04523 C 366.60817,392.04525 366.84629,392.28223 366.8486,392.75616 C 366.81894,393.59473 366.28688,395.53614 365.25241,398.58038 L 365.25241,398.58038 z" style="font-size:144px;font-style:normal;font-variant:normal;font-weight:normal;font-stretch:normal;text-align:center;line-height:125%;writing-mode:lr-tb;text-anchor:middle;fill:#ffffff;fill-opacity:1;stroke:none;stroke-width:1px;stroke-linecap:butt;stroke-linejoin:miter;stroke-opacity:1;font-family:Berlin Sans FB"/><path id="text4663" d="M 142.95601,494.60956 C 142.95596,497.07985 142.84253,498.54186 142.61571,498.99559 C 142.33839,499.55014 141.48135,499.82742 140.04459,499.82742 C 139.81769,499.82742 139.31355,499.82742 138.53217,499.82742 C 137.77592,499.80221 137.13944,499.78961 136.62274,499.78961 C 136.10595,499.78961 135.33714,499.7644 134.31629,499.71399 C 133.29537,499.66357 132.53286,499.63837 132.02875,499.63837 C 131.62541,499.63837 129.8105,497.21849 126.58403,492.37874 C 123.3575,487.53899 121.68123,485.10652 121.55522,485.08129 C 121.02585,485.50983 119.21094,488.05574 116.1105,492.71903 C 113.13605,497.18068 111.39677,499.48712 110.89264,499.63837 C 110.53973,499.73919 109.59446,499.78961 108.05684,499.78961 C 102.88939,499.78961 100.30567,499.52494 100.30568,498.99559 C 100.30567,498.46624 100.27416,497.71003 100.21115,496.72695 C 100.14813,495.74388 100.11662,495.01288 100.11662,494.53394 C 100.11662,491.40827 100.30567,489.56816 100.68378,489.01359 C 100.70899,488.9884 102.78857,486.22823 106.92253,480.73308 C 110.27505,476.29666 111.95132,473.76335 111.95133,473.13315 C 111.95132,472.503 110.27505,470.00751 106.92253,465.64666 C 104.80513,462.94954 102.70034,460.23978 100.60816,457.51738 C 100.38129,457.18973 100.24266,456.64778 100.19224,455.89153 C 100.16703,455.36222 100.16703,454.64382 100.19224,453.73632 C 100.26786,452.65247 100.30567,452.0475 100.30568,451.92142 C 100.30567,451.41732 100.26156,450.63591 100.17334,449.57716 C 100.08511,448.51852 100.041,447.7371 100.041,447.2329 C 100.041,446.75402 100.48212,446.51456 101.36437,446.5145 C 101.94413,446.51456 102.80117,446.55237 103.93549,446.62794 C 105.0698,446.70361 105.91424,446.74142 106.4688,446.74137 C 106.97293,446.74142 107.71654,446.71621 108.69962,446.66575 C 109.68269,446.61538 110.41369,446.59018 110.89264,446.59012 C 111.29594,446.59018 113.12975,449.04156 116.39408,453.94428 C 119.65837,458.84709 121.36614,461.29848 121.51741,461.29844 C 122.02153,460.99599 123.87424,458.42488 127.07557,453.58508 C 130.12559,448.92183 131.87748,446.59018 132.33124,446.59012 L 141.33015,446.59012 C 142.21236,446.59018 142.65348,446.80444 142.65352,447.2329 L 142.65352,456.42087 C 142.65348,457.0763 140.70624,459.9373 136.81179,465.00388 C 132.91727,470.07052 130.97002,472.75507 130.97006,473.05753 C 130.97002,473.48608 132.6841,475.96897 136.11229,480.50621 C 140.14538,485.82492 142.25017,488.61029 142.42666,488.86235 C 142.77951,489.41692 142.95596,491.33265 142.95601,494.60956 L 142.95601,494.60956 z M 174.79252,482.2455 C 174.79249,487.36254 172.63729,491.74857 168.32691,495.40358 C 164.54583,498.63009 159.94555,500.68446 154.52605,501.56671 C 154.32438,501.59191 154.16054,501.60451 154.03451,501.60452 C 153.45474,501.60451 152.16918,499.83372 150.17783,496.29213 C 148.18647,492.75055 147.19079,490.58904 147.19079,489.80762 C 147.19079,489.53035 147.37985,489.3539 147.75795,489.27827 C 151.41297,488.44645 153.83284,487.74065 155.01758,487.16088 C 157.63911,485.85012 158.94987,483.90918 158.94988,481.33805 C 158.94987,479.69961 158.09283,477.8721 156.37876,475.85551 C 153.40432,472.42738 151.79108,470.52425 151.53901,470.14612 C 149.79972,467.52461 148.93008,464.62581 148.93008,461.44968 C 148.93008,456.83683 151.06007,453.00537 155.32007,449.95527 C 158.79863,447.43461 163.07122,445.79616 168.13785,445.03989 C 168.41511,445.01474 168.62937,445.00213 168.78063,445.00208 C 169.15872,445.00213 169.4612,445.30462 169.68809,445.90953 C 170.34345,447.7497 171.86847,451.07703 174.26317,455.89153 C 174.33876,456.04281 174.37657,456.16885 174.3766,456.26963 C 174.37657,456.6982 174.14971,456.91246 173.69601,456.91241 C 173.49433,456.91246 173.15403,456.87464 172.67512,456.79898 C 172.19616,456.7234 171.83066,456.68559 171.57862,456.68555 C 169.76369,456.68559 168.17564,457.10151 166.81448,457.9333 C 165.17601,458.89121 164.35678,460.22718 164.3568,461.94122 C 164.35678,463.47889 165.26423,465.36941 167.07916,467.61281 C 170.28043,471.64596 171.9567,473.76335 172.10797,473.96498 C 173.89764,476.73778 174.79249,479.49795 174.79252,482.2455 L 174.79252,482.2455 z M 215.81699,500.28115 C 213.64915,500.28115 210.82596,500.23073 207.34742,500.1299 C 202.81013,500.02908 199.98694,499.96606 198.87785,499.94085 L 187.57249,499.78961 C 186.43817,499.81482 184.81231,499.7644 182.69493,499.63837 C 181.96392,499.51233 181.59842,499.12162 181.59842,498.46624 C 181.59842,495.71867 181.64253,491.60363 181.73076,486.12108 C 181.81898,480.63857 181.86309,476.52352 181.86309,473.77593 C 181.86309,470.85194 181.77487,466.47222 181.59842,460.63675 C 181.42197,454.80137 181.33374,450.42165 181.33375,447.49758 C 181.33374,446.94308 181.71185,446.6658 182.46806,446.66575 C 183.22427,446.6658 184.35228,446.70361 185.85211,446.77918 C 187.35192,446.85485 188.46733,446.89266 189.19835,446.89261 C 190.03017,446.89266 191.26531,446.84855 192.90378,446.76027 C 194.54222,446.6721 195.77737,446.62799 196.60922,446.62794 C 196.98731,446.62799 197.16376,446.86745 197.13857,447.34634 L 197.10076,447.83787 C 196.79825,452.57685 196.45796,459.69783 196.07987,469.20085 L 196.04206,479.18284 C 196.04204,482.40936 196.05465,484.76622 196.07987,486.25342 C 196.10506,486.55592 196.13027,486.8584 196.15549,487.16088 C 196.18068,487.46337 196.36973,487.65243 196.72265,487.72803 C 196.74784,487.72805 197.07553,487.72805 197.70573,487.72803 C 199.97434,487.72805 203.37099,487.60831 207.89568,487.36883 C 212.42031,487.12938 215.81696,487.00965 218.08563,487.00963 C 218.76618,487.00965 219.10647,487.29953 219.10651,487.87928 C 219.10647,492.18969 218.79138,495.90773 218.16125,499.0334 C 218.03517,499.68878 217.7705,500.07949 217.36723,500.20553 C 217.24115,500.25594 216.72441,500.28115 215.81699,500.28115 L 215.81699,500.28115 z M 260.24442,458.16016 C 260.24438,458.66434 259.96711,458.91641 259.41259,458.91637 C 258.45468,458.91641 254.66103,458.72736 248.03161,458.34921 C 247.88034,464.72663 247.80471,469.17567 247.80474,471.69635 C 247.80471,474.67081 247.92445,479.14505 248.16394,485.1191 C 248.40338,491.09318 248.52311,495.56743 248.52314,498.54186 C 248.52311,499.02079 248.40968,499.32328 248.18285,499.44931 C 248.1072,499.49973 247.7543,499.56275 247.12415,499.63837 C 245.6117,499.84002 243.39348,499.94085 240.46949,499.94085 C 237.21776,499.94085 234.93653,499.84002 233.62578,499.63837 C 232.91996,499.51233 232.56707,499.12162 232.56708,498.46624 C 232.56707,495.49181 232.6931,491.03017 232.94518,485.08129 C 233.19724,479.13245 233.32328,474.67081 233.32329,471.69635 C 233.32328,469.73023 233.22245,465.34421 233.02081,458.53827 C 227.97939,459.04245 223.95887,459.29452 220.95923,459.29448 C 220.55592,459.29452 220.35426,459.16848 220.35426,458.91637 C 220.35426,458.58872 220.53071,457.61825 220.88361,456.00496 C 221.28692,454.24051 221.51378,453.16921 221.5642,452.79106 C 221.63982,451.60638 221.72804,450.42165 221.82887,449.23686 C 222.00532,447.34639 222.30781,446.40112 222.73633,446.40107 C 222.78674,446.40112 222.96319,446.41373 223.26568,446.43888 C 227.34921,446.96828 233.38629,447.23296 241.37694,447.2329 C 243.64555,447.23296 247.82992,446.99349 253.93006,446.5145 C 257.20694,446.26249 258.858,446.13645 258.88324,446.1364 C 259.38734,446.13645 259.67722,446.16796 259.75289,446.23092 C 259.82847,446.29399 259.87888,446.53976 259.90413,446.96823 C 259.90409,447.64887 259.87888,448.59414 259.82851,449.80402 C 259.77805,451.14005 259.75285,452.08531 259.75289,452.63982 C 259.75285,453.27004 259.83477,454.1964 259.99865,455.41889 C 260.16246,456.64148 260.24438,457.55523 260.24442,458.16016 L 260.24442,458.16016 z M 303.31067,458.91637 C 303.31063,459.19369 303.05856,459.33233 302.55446,459.33229 C 300.66389,459.33233 297.79659,459.16848 293.95255,458.84075 C 290.10845,458.5131 287.22855,458.34926 285.31284,458.34921 C 282.89294,458.34926 281.48134,458.43748 281.07805,458.61389 C 280.14537,459.04245 279.67904,460.25239 279.67906,462.2437 C 279.67904,464.63841 280.28401,465.99959 281.49397,466.32725 C 281.99809,466.45332 282.7669,466.51633 283.80041,466.5163 C 285.53968,466.51633 288.1423,466.42181 291.6083,466.23272 C 295.07423,466.0437 297.67686,465.94917 299.41618,465.94914 C 300.24798,465.94917 300.66389,468.16739 300.66393,472.6038 C 300.66389,476.4605 300.52525,478.70393 300.24802,479.33409 C 300.07153,479.78783 299.73123,480.0147 299.22713,480.01468 C 299.55478,480.0147 298.76076,479.92647 296.84506,479.75 C 294.14788,479.49795 290.06434,479.37192 284.59444,479.3719 C 282.82992,479.37192 281.83424,479.38452 281.6074,479.40971 C 280.32182,479.61138 279.67904,480.15333 279.67906,481.03556 C 279.67904,484.61498 279.83028,488.73633 280.13279,493.39962 C 280.38484,497.6092 280.51087,499.48712 280.51089,499.0334 C 280.51087,499.68878 279.71685,500.06689 278.12883,500.16771 C 278.55733,500.14251 277.43562,500.1299 274.76369,500.1299 C 270.04996,500.1299 267.01251,499.96606 265.65134,499.63837 C 264.92033,499.46192 264.55483,499.07121 264.55483,498.46624 C 264.55483,495.66826 264.64935,491.46499 264.83841,485.85641 C 265.02746,480.24786 265.12198,476.04459 265.12199,473.24658 C 265.12198,469.91928 264.97074,465.73491 264.66826,460.69347 C 264.21453,452.90454 263.97506,448.72017 263.94986,448.14036 L 263.91205,447.68663 C 263.88684,447.05651 264.26495,446.74142 265.04637,446.74137 C 266.91168,446.74142 269.72857,446.77923 273.49703,446.8548 C 277.26547,446.93047 280.09496,446.96828 281.98551,446.96823 C 284.00205,446.96828 287.03319,446.81704 291.07895,446.5145 C 295.12465,446.21207 298.15579,446.06083 300.1724,446.06078 C 301.43271,446.06083 302.1385,446.57757 302.28979,447.61101 C 302.28975,448.69496 302.34016,450.32082 302.44103,452.48857 C 302.4914,453.04318 302.65525,454.11448 302.93257,455.70247 C 303.1846,457.0889 303.31063,458.1602 303.31067,458.91637 L 303.31067,458.91637 z M 343.91923,481.03556 C 343.91919,486.78278 342.161,491.44608 338.64466,495.02548 C 335.12824,498.60488 330.50905,500.39458 324.78708,500.39458 C 319.24151,500.39458 314.67904,498.63009 311.09965,495.1011 C 307.52025,491.57212 305.73055,487.03485 305.73055,481.48929 C 305.73055,475.64128 307.44462,470.89605 310.87279,467.25361 C 314.30094,463.61122 318.93903,461.79002 324.78708,461.78998 C 330.48385,461.79002 335.09673,463.57341 338.62575,467.14017 C 342.1547,470.707 343.91919,475.33879 343.91923,481.03556 L 343.91923,481.03556 z M 331.51736,481.03556 C 331.51734,479.04423 330.89976,477.28604 329.66464,475.76099 C 328.42948,474.23598 326.82883,473.47347 324.8627,473.47345 C 322.87133,473.47347 321.23287,474.25489 319.94733,475.8177 C 318.73737,477.27973 318.1324,479.01902 318.13242,481.03556 C 318.1324,483.07735 318.73737,484.82924 319.94733,486.29123 C 321.23287,487.85408 322.87133,488.6355 324.8627,488.63549 C 326.82883,488.6355 328.45468,487.85408 329.74027,486.29123 C 330.92497,484.82924 331.51734,483.07735 331.51736,481.03556 L 331.51736,481.03556 z M 373.60053,476.08238 C 373.60051,477.06547 373.05855,477.55701 371.97468,477.55699 C 371.49572,477.55701 370.79622,477.5255 369.87619,477.46246 C 368.95611,477.39947 368.26922,477.36796 367.81552,477.36794 C 365.72331,477.36796 364.29911,477.69565 363.54292,478.35101 C 362.78669,479.00641 362.40859,480.32978 362.4086,482.32112 C 362.40859,483.40504 362.42749,485.0498 362.46532,487.2554 C 362.50311,489.46103 362.52202,491.10579 362.52203,492.18968 C 362.52202,492.92069 362.57243,494.0109 362.67328,495.4603 C 362.77409,496.90971 362.8245,497.98731 362.82452,498.6931 C 362.8245,499.29807 362.40859,499.63837 361.57677,499.71399 C 360.36682,499.81482 358.5141,499.86523 356.01861,499.86523 C 353.62394,499.86523 351.7082,499.78961 350.27141,499.63837 C 349.43957,499.53754 349.02365,499.12162 349.02366,498.39062 C 349.02365,496.37406 349.03626,493.35552 349.06147,489.33498 C 349.08667,485.31447 349.09927,482.29593 349.09928,480.27935 C 349.09927,474.35572 348.55732,469.47816 347.47342,465.64666 C 347.42301,465.41983 347.3978,465.23077 347.3978,465.0795 C 347.3978,464.70143 347.58685,464.44936 347.96496,464.32329 C 349.35135,464.17208 351.38051,463.8948 354.05246,463.49145 C 358.03517,462.71007 360.08954,462.31936 360.21559,462.31933 C 360.6693,462.31936 360.95918,463.11338 361.08523,464.70139 C 361.21125,466.28947 361.43811,467.08349 361.76582,467.08346 C 361.41291,467.08349 362.4464,466.42181 364.86629,465.0984 C 367.28615,463.77507 369.6178,463.11338 371.86125,463.11335 C 373.27281,463.11338 373.97861,463.41587 373.97864,464.0208 C 373.97861,464.75184 373.90299,465.78533 373.75178,467.12127 C 373.60051,468.5581 373.51228,469.59159 373.4871,470.22174 C 373.48707,470.95277 373.49968,471.92324 373.52491,473.13315 C 373.5753,474.62039 373.60051,475.60347 373.60053,476.08238 L 373.60053,476.08238 z M 438.44569,498.23938 C 438.44563,499.12162 438.06752,499.61316 437.31137,499.71399 C 436.5551,499.81482 434.68978,499.86523 431.71541,499.86523 C 428.64009,499.86523 426.72436,499.78961 425.9682,499.63837 C 425.21194,499.48712 424.83383,498.86955 424.83388,497.78565 C 424.83383,496.62613 424.87164,494.89314 424.94731,492.58669 C 425.02288,490.28026 425.06069,488.54727 425.06074,487.38774 C 425.06069,482.97652 425.01028,479.83825 424.9095,477.9729 C 424.75821,474.97329 423.33401,473.47347 420.63691,473.47345 C 419.45213,473.47347 418.2737,473.97131 417.10162,474.96696 C 415.92945,475.96267 415.28037,477.06547 415.15437,478.27539 C 415.0535,479.33411 415.00309,482.43457 415.00313,487.57679 C 415.00309,488.76153 415.0409,490.55754 415.11656,492.9648 C 415.19214,495.37208 415.22995,497.18068 415.22999,498.39062 C 415.22995,499.22245 414.86445,499.63837 414.13349,499.63837 L 402.67688,499.63837 C 401.97106,499.63837 401.61816,499.12162 401.61818,498.08813 C 401.61816,496.9034 401.65597,495.12631 401.73162,492.75684 C 401.80721,490.38739 401.84502,488.59769 401.84505,487.38774 C 401.84502,486.45509 401.81981,485.0435 401.76943,483.15295 C 401.71899,481.26244 401.69378,479.83825 401.69381,478.88036 C 401.69378,475.27577 400.32,473.47347 397.57245,473.47345 C 396.46332,473.47347 395.26599,473.90199 393.98045,474.75901 C 392.56884,475.69169 391.86304,476.67476 391.86306,477.70823 C 391.86304,480.00209 391.87564,483.43025 391.90087,487.99271 C 391.92606,492.55519 391.93866,495.97074 391.93868,498.23938 C 391.93866,498.86955 391.86304,499.26026 391.71181,499.4115 C 391.56055,499.56275 391.16985,499.66357 390.53969,499.71399 C 389.40535,499.81482 387.61565,499.86523 385.17058,499.86523 C 383.58253,499.86523 381.78023,499.78961 379.76367,499.63837 C 379.1587,499.58795 378.7995,499.49973 378.68607,499.37369 C 378.57263,499.24766 378.51592,498.86955 378.51592,498.23938 C 378.51592,496.22281 378.52852,493.20427 378.55373,489.18374 C 378.57894,485.16323 378.59154,482.14469 378.59154,480.12811 C 378.59154,475.99417 378.28905,471.34348 377.68409,466.176 C 377.63367,465.87355 377.60846,465.64669 377.60847,465.49541 C 377.60846,465.06693 377.78491,464.77705 378.13782,464.62577 C 378.69237,464.39894 379.73846,464.20989 381.27609,464.05861 C 383.16661,463.8822 384.28833,463.76877 384.64124,463.71832 C 384.8933,463.66794 385.88897,463.40326 387.62827,462.92429 C 388.8634,462.57143 389.85908,462.39498 390.61531,462.39495 C 391.09422,462.39498 391.34629,463.27093 391.37152,465.02278 C 391.39671,466.7747 391.49754,467.65065 391.674,467.65062 C 391.92606,467.54982 392.21594,467.37337 392.54365,467.12127 C 394.81226,465.35681 396.60196,464.14687 397.91275,463.49145 C 399.85367,462.55883 401.95845,462.0925 404.22711,462.09246 C 406.54613,462.0925 408.61311,462.60924 410.42805,463.6427 C 412.46978,464.80225 413.79315,466.42811 414.39816,468.52026 C 415.73409,466.70539 417.57421,465.18036 419.91851,463.94518 C 422.26271,462.71007 424.54395,462.0925 426.76222,462.09246 C 430.0895,462.0925 432.79925,462.86131 434.89149,464.39891 C 437.26089,466.13823 438.44563,468.62112 438.44569,471.84759 C 438.44563,473.18359 438.40781,475.19385 438.33226,477.87838 C 438.25657,480.56295 438.21876,482.57321 438.21883,483.90917 C 438.21876,485.49722 438.25657,487.88559 438.33226,491.07427 C 438.40781,494.26297 438.44563,496.65133 438.44569,498.23938 L 438.44569,498.23938 z M 467.74889,469.04961 C 467.74886,469.30171 467.55981,469.642 467.18173,470.07049 C 466.47591,469.89407 465.77011,469.80585 465.06434,469.80582 C 463.5771,469.80585 462.32935,470.13354 461.32109,470.78889 C 460.11113,471.54513 459.50617,472.61643 459.50618,474.00279 C 459.50617,474.88507 460.14894,476.00678 461.43452,477.36794 C 463.37544,479.40973 464.57278,480.78351 465.02653,481.48929 C 466.31206,483.40504 466.95484,485.45941 466.95487,487.65241 C 466.95484,488.93798 466.70277,490.29916 466.19865,491.73596 C 465.61887,493.32401 464.88787,494.48353 464.00564,495.21453 C 462.1403,496.82778 459.95989,498.18896 457.46441,499.29807 C 454.76724,500.4576 452.28435,501.03736 450.01573,501.03736 C 449.51158,501.03736 448.38356,499.66988 446.63168,496.93491 C 444.87979,494.19995 444.00384,492.52998 444.00384,491.92501 C 444.00384,491.69815 444.14248,491.55951 444.41976,491.50909 C 446.18425,491.18141 447.96135,490.85372 449.75105,490.52602 C 451.96926,489.82023 453.07837,488.66071 453.07838,487.04744 C 453.07837,485.93835 452.43559,484.65279 451.15004,483.19076 C 448.8562,480.64487 447.65886,479.2963 447.55804,479.14503 C 446.27248,477.33015 445.6297,475.41441 445.6297,473.39782 C 445.6297,469.6168 447.54543,466.4029 451.37691,463.75613 C 454.80505,461.41191 458.47268,460.23978 462.37979,460.23974 C 462.78308,460.23978 463.77876,461.59466 465.36682,464.30438 C 466.95484,467.01417 467.74886,468.59591 467.74889,469.04961 L 467.74889,469.04961 z" style="font-size:137.66412354px;font-style:normal;font-variant:normal;font-weight:normal;font-stretch:normal;text-align:center;line-height:125%;writing-mode:lr-tb;text-anchor:middle;fill:#f2e75b;fill-opacity:1;stroke:none;stroke-width:1px;stroke-linecap:butt;stroke-linejoin:miter;stroke-opacity:1;font-family:Berlin Sans FB" transform="scale(1.0125258,0.9876292)"/></g></g></svg>